<?xml version="1.0" encoding="UTF-8" standalone="no"?>
<svg
   xmlns:dc="http://purl.org/dc/elements/1.1/"
   xmlns:cc="http://creativecommons.org/ns#"
   xmlns:rdf="http://www.w3.org/1999/02/22-rdf-syntax-ns#"
   xmlns:svg="http://www.w3.org/2000/svg"
   xmlns="http://www.w3.org/2000/svg"
   viewBox="0 0 1024 768"
   height="768"
   width="1024"
   id="svg2"
   version="1.1">
  <metadata
     id="metadata8">
    <rdf:RDF>
      <cc:Work
         rdf:about="">
        <dc:format>image/svg+xml</dc:format>
        <dc:type
           rdf:resource="http://purl.org/dc/dcmitype/StillImage" />
        <dc:title></dc:title>
      </cc:Work>
    </rdf:RDF>
  </metadata>
  <defs
     id="defs6" />
  <path
     style="fill:#ffffff;fill-opacity:1;stroke-width:1"
     d="m 192.00001,612.67576 v -91.32417 h 91.32427 91.32416 v 91.32417 91.32427 h -91.32416 -91.32427 z m 113.9726,56.9863 V 658.70315 H 295.0137 284.0548 v 10.95891 10.9589 h 10.9589 10.95891 z m 0,-46.0274 v -11.68942 h 11.68953 11.68954 v -10.95891 -10.9589 h 11.68942 11.68953 V 578.33789 566.64836 H 341.0411 329.35168 V 554.95893 543.2694 H 295.0137 260.67584 v 11.68953 11.68943 h -10.9589 -10.95891 v 11.68953 11.68954 h 10.95891 10.9589 v -11.68954 -11.68953 h 34.33786 34.33798 v 11.68953 11.68954 h -11.68954 -11.68953 v 10.9589 10.95891 H 295.0137 284.0548 v 11.68942 11.68953 h 10.9589 10.95891 z m 115.43386,-10.9589 v -91.32417 h 91.32416 91.3242 v 91.32417 91.32427 h -91.3242 -91.32416 z m 227.94516,0 v -91.32417 h 91.3242 91.32419 v 91.32417 91.32427 h -91.32419 -91.3242 z m 137.35159,56.9863 v -10.95891 h 10.95891 10.9589 v -23.37896 -23.37895 h -10.9589 -10.95891 v -10.95891 -10.9589 h 10.95891 10.9589 v -11.68954 -11.68953 h -10.9589 -10.95891 V 554.95893 543.2694 h -46.02739 -46.0274 v 11.68953 11.68943 h -11.6895 -11.68949 v 11.68953 11.68954 h 11.68949 11.6895 v 10.9589 10.95891 h -11.6895 -11.68949 v 23.37895 23.37896 h 11.68949 11.6895 v 10.95891 10.9589 h 46.0274 46.02739 z m -92.05479,-34.33787 v -23.37895 h 46.0274 46.02739 v 23.37895 23.37896 h -46.02739 -46.0274 z m 0,-56.9863 v -11.68953 h 46.0274 46.02739 v 11.68953 11.68954 h -46.02739 -46.0274 z M 192.00001,384.73059 v -91.3242 h 91.32427 91.32416 v 91.3242 91.32425 h -91.32416 -91.32427 z m 229.40646,0 v -91.3242 h 91.32416 91.3242 v 91.3242 91.32425 h -91.3242 -91.32416 z m 135.89037,56.25574 v -11.68954 h 11.6895 11.68949 v -22.6484 -22.64841 h -11.68949 -11.6895 V 372.3105 360.621 H 512 466.70324 v -10.95891 -10.9589 h 56.9863 56.98629 V 327.01368 315.3242 H 512 443.32428 v 34.33789 34.33789 h 56.9863 56.98626 v 22.64841 22.64841 H 512 466.70324 V 418.3379 407.37899 H 455.0137 443.32428 v 10.95891 10.9589 h 11.68942 11.68954 v 11.68954 11.68943 H 512 557.29684 Z m 92.05479,-56.25574 v -91.3242 h 91.3242 91.32419 v 91.3242 91.32425 h -91.32419 -91.3242 z m 113.9726,56.25574 v -11.68954 h -11.6895 -11.6895 v 11.68954 11.68943 h 11.6895 11.6895 z m 0,-45.29684 v -11.68951 h 11.68949 11.6895 V 372.3105 360.621 h 10.95891 10.9589 v -10.95891 -10.9589 h -10.9589 -10.95891 V 327.01368 315.3242 h -34.33789 -34.33791 v 11.68948 11.68951 h -11.68949 -11.6895 v 10.9589 10.95891 h 11.6895 11.68949 v -10.95891 -10.9589 h 34.33791 34.33789 v 10.9589 10.95891 h -11.6895 -11.68949 v 11.6895 11.68948 h -11.6895 -11.6895 v 11.68951 11.6895 h 11.6895 11.6895 z M 192.00001,155.32418 V 63.999986 h 91.32427 91.32416 v 91.324194 91.32422 h -91.32416 -91.32427 z m 160.73062,57.7169 v -11.68951 h -56.9863 -56.9863 v -11.68948 -11.68951 h 45.29677 45.29688 v -10.9589 -10.95891 h 11.68942 11.68953 v -22.6484 -22.64838 H 341.0411 329.35168 V 99.068496 87.378994 H 284.0548 238.75803 V 99.068496 110.75799 H 227.0685 215.37907 v 10.9589 10.95889 h 11.68943 11.68953 v -10.95889 -10.9589 h 45.29677 45.29688 v 22.64839 22.64841 H 284.0548 238.75803 v 10.9589 10.9589 H 227.0685 215.37907 v 23.379 23.379 h 68.67573 68.67583 z m 68.67584,-57.7169 V 63.999986 h 91.32416 91.3242 v 91.324194 91.32422 h -91.3242 -91.32416 z m 227.94516,0 V 63.999986 h 91.3242 91.32419 v 91.324194 91.32422 h -91.32419 -91.3242 z m 137.35159,57.7169 v -11.68951 h 10.95891 10.9589 v -22.64838 -22.64842 h -10.9589 -10.95891 v -11.6895 -11.6895 h -46.02739 -46.0274 v -10.95889 -10.95891 h 56.9863 56.9863 V 99.068485 87.378983 h -56.9863 -56.9863 v 11.689502 11.689485 h -11.6895 -11.68949 v 45.2968 45.2968 h 11.68949 11.6895 v 11.68951 11.68951 h 46.0274 46.02739 z m -92.05479,-34.33789 v -22.64842 h 46.0274 46.02739 v 22.64842 22.64838 h -46.02739 -46.0274 z"
     id="path821" />
</svg>
